<svg id="Layer_1" enable-background="new 0 0 511 511" height="512" viewBox="0 0 511 511"  width="512" xmlns="http://www.w3.org/2000/svg"><g  fill="#69ba56"><path d="m375 374.271v-54.865c7.941-14.811 12.98-30.759 15.001-47.458 5.654-9.133 8.999-20.339 8.999-32.447 0-20.74-9.794-38.848-24.255-48.373-23.736-43.895-69.33-71.128-119.245-71.128-23.707 0-46.664 6.104-67.024 17.723-7.151-9.151-16.081-16.846-26.264-22.565 27.628-18.456 59.627-28.158 93.288-28.158 65.635 0 125.763 38.549 153.186 98.209l13.629-6.265c-14.463-31.465-37.466-58.138-66.522-77.136-29.826-19.5-64.507-29.808-100.293-29.808-39.857 0-77.584 12.485-109.375 36.146-8.4-2.689-17.345-4.146-26.625-4.146-48.248 0-87.5 39.252-87.5 87.5 0 30.86 16.06 58.039 40.259 73.622 2.417 46.76 22.359 90.345 56.262 122.851 34.322 32.905 79.417 51.027 126.979 51.027 25.823 0 50.635-5.209 73.907-15.491 3.282 9.026 11.946 15.491 22.093 15.491 12.958 0 23.5-10.542 23.5-23.5v-20.741c27.539-23.633 47.246-54.408 57.092-89.218l-14.434-4.083c-7.825 27.667-22.463 52.542-42.658 72.813zm-32-80.179c2.76.585 5.598.908 8.5.908s5.74-.322 8.5-.908v35.505c-2.638-1.027-5.503-1.597-8.5-1.597s-5.862.57-8.5 1.597zm41-54.592c0 22.332-14.579 40.5-32.5 40.5s-32.5-18.168-32.5-40.5 14.579-40.5 32.5-40.5 32.5 18.168 32.5 40.5zm-337-48c0-39.977 32.523-72.5 72.5-72.5s72.5 32.523 72.5 72.5c0 15.356-4.757 30.04-13.756 42.465l-2.139 2.954 4.475 15.661-15.662-4.475-2.953 2.139c-12.425 8.999-27.109 13.756-42.465 13.756-39.977 0-72.5-32.523-72.5-72.5zm40.916 81.599c9.802 3.807 20.453 5.901 31.584 5.901 17.297 0 33.887-5 48.216-14.495l34.704 9.916-9.915-34.704c9.496-14.33 14.495-30.921 14.495-48.217 0-14.878-3.737-28.898-10.315-41.178 17.907-10.041 38.033-15.322 58.815-15.322 38.713 0 74.501 18.426 97.029 49.031-.343-.009-.684-.031-1.029-.031-26.191 0-47.5 24.897-47.5 55.5 0 20.618 9.679 38.632 24 48.202v64.029c-21.005 15.876-45.989 24.269-72.5 24.269-53.188 0-100.754-35.613-115.67-86.605l-14.396 4.211c8.058 27.545 25.14 52.334 48.101 69.801 23.73 18.051 52.073 27.593 81.965 27.593 25.685 0 50.935-7.393 72.5-21.03v37.675c-22.692 10.852-47.058 16.355-72.5 16.355-87.009 0-158.783-65.515-167.584-150.901zm272.084 142.401c0 4.687-3.813 8.5-8.5 8.5s-8.5-3.813-8.5-8.5v-64c0-4.687 3.813-8.5 8.5-8.5s8.5 3.813 8.5 8.5z"/><path d="m496 199.5v48c0 17.92-14.579 32.5-32.5 32.5s-32.5-14.58-32.5-32.5v-48h-15v48c0 17.646 9.679 33.063 24 41.253v126.747c0 12.958 10.542 23.5 23.5 23.5s23.5-10.542 23.5-23.5v-126.747c14.321-8.19 24-23.608 24-41.253v-48zm-24 216c0 4.687-3.813 8.5-8.5 8.5s-8.5-3.813-8.5-8.5v-64c0-4.687 3.813-8.5 8.5-8.5s8.5 3.813 8.5 8.5zm0-85.903c-2.638-1.027-5.503-1.597-8.5-1.597s-5.862.57-8.5 1.597v-35.374c2.76.501 5.598.777 8.5.777s5.74-.276 8.5-.777z"/><path d="m442.667 199.5h15v48h-15z"/><path d="m469.333 199.5h15v48h-15z"/><path d="m0 191.5h15c0-5 .356-10.026 1.059-14.938l-14.85-2.123c-.802 5.612-1.209 11.353-1.209 17.061z"/><path d="m119.5 87v-15c-26.264 0-51.186 8.358-72.071 24.172-20.201 15.295-35.288 37.026-42.479 61.188l14.377 4.279c13.079-43.946 54.272-74.639 100.173-74.639z"/><path d="m149.5 140.894-40 40-20-20-30.606 30.606 50.606 50.606 70.606-70.606zm-69.394 50.606 9.394-9.394 20 20 40-40 9.394 9.394-49.394 49.394z"/><path d="m215.5 248h16v15h-16z"/><path d="m247.5 248h16v15h-16z"/><path d="m279.5 248h16v15h-16z"/></g></svg>